<?xml version="1.0" standalone="no"?>
<!DOCTYPE svg PUBLIC "-//W3C//DTD SVG 20010904//EN"
 "http://www.w3.org/TR/2001/REC-SVG-20010904/DTD/svg10.dtd">
<svg version="1.0" xmlns="http://www.w3.org/2000/svg"
 width="433.000000pt" height="433.000000pt" viewBox="0 0 433.000000 433.000000"
 preserveAspectRatio="xMidYMid meet">
<metadata>
Created by potrace 1.14, written by Peter Selinger 2001-2017
</metadata>
<g transform="translate(0.000000,433.000000) scale(0.100000,-0.100000)"
fill="#000000" stroke="none">
<path d="M1543 4118 c-5 -7 -9 -64 -8 -125 0 -62 0 -113 -2 -113 -1 0 -50 18
-108 41 -58 22 -110 39 -116 37 -5 -2 43 -24 108 -49 l118 -47 3 -256 c2 -141
1 -256 -2 -256 -4 0 -77 32 -163 70 -87 39 -162 69 -168 67 -10 -4 88 -52 257
-127 l78 -35 1 -55 c7 -556 7 -581 -15 -574 -22 7 -552 222 -618 251 -31 13
-38 21 -38 45 0 15 -4 28 -9 28 -4 0 -7 -11 -6 -25 4 -30 8 -30 -55 -5 -54 21
-91 17 -49 -5 22 -12 541 -230 709 -298 41 -17 78 -33 82 -36 8 -7 16 -874 8
-880 -4 -3 -58 3 -118 13 -10 2 -39 7 -65 10 -27 4 -57 9 -67 11 -9 2 -35 6
-56 9 -22 4 -66 11 -99 17 -63 12 -69 12 -150 24 -27 3 -57 8 -65 10 -8 2 -31
7 -50 10 -40 7 -48 17 -44 52 4 41 -8 41 209 2 28 -5 68 -11 90 -14 22 -3 54
-8 70 -11 41 -9 66 -7 78 5 15 15 8 19 -48 25 -27 4 -57 8 -65 10 -8 3 -37 7
-65 11 -52 6 -90 11 -140 20 -16 3 -52 8 -78 12 l-48 6 5 151 c2 83 5 192 5
242 l1 91 113 -35 c122 -38 178 -50 162 -35 -8 8 -100 39 -140 48 -5 1 -38 10
-71 20 l-62 18 4 100 c3 55 6 102 7 104 2 1 36 -9 76 -22 80 -27 90 -29 75
-16 -5 4 -42 18 -82 30 l-73 22 4 105 c2 58 0 107 -5 110 -4 3 -8 -16 -9 -43
-1 -42 -6 -132 -8 -157 -1 -4 -8 -6 -16 -2 -8 3 -15 1 -15 -4 0 -6 7 -10 16
-10 13 0 15 -13 9 -102 -3 -56 -7 -103 -8 -105 -3 -2 -104 27 -212 61 -57 18
-77 20 -55 6 11 -7 104 -38 122 -41 2 0 35 -10 73 -23 l70 -23 -1 -64 c-1 -35
-5 -129 -9 -209 -5 -80 -9 -160 -9 -177 0 -18 -1 -33 -1 -33 -10 0 -216 33
-233 37 -13 3 -20 9 -15 14 5 5 26 4 47 -2 56 -15 80 -19 72 -12 -4 4 -15 8
-24 10 -10 1 -36 8 -57 15 -39 13 -40 14 -36 58 6 87 7 149 2 144 -5 -5 -7
-23 -12 -111 -3 -60 -7 -69 -34 -76 -18 -4 -18 -5 3 -6 13 -1 22 -7 22 -17 0
-12 -7 -14 -28 -10 -15 3 -47 8 -72 11 -76 11 -104 15 -130 20 -71 12 -100 14
-100 6 0 -14 10 -18 60 -25 25 -3 56 -8 70 -11 26 -5 61 -11 128 -20 68 -10
69 -10 65 -68 -2 -28 -6 -63 -8 -77 -2 -14 -4 -35 -4 -46 -1 -21 -2 -21 -63
-8 -35 7 -65 11 -67 9 -3 -4 16 -9 84 -23 l40 -8 -3 -74 c-2 -41 -5 -76 -6
-78 -3 -3 -44 3 -141 22 -11 2 -40 7 -65 12 -25 4 -47 8 -50 9 -9 2 -105 17
-107 17 -2 0 -25 6 -53 13 -49 13 -65 9 -52 -11 4 -6 101 -30 217 -53 116 -23
219 -46 231 -50 16 -7 19 -16 16 -45 -2 -20 -8 -38 -12 -41 -4 -3 -52 4 -107
15 -54 11 -111 23 -127 26 -16 3 -33 7 -38 10 -4 3 -8 1 -8 -5 0 -8 25 -15
125 -35 127 -26 166 -39 161 -54 -3 -10 -8 -55 -11 -102 -3 -47 -8 -101 -11
-121 l-5 -35 -62 2 c-340 14 -411 15 -402 6 6 -6 82 -13 170 -17 88 -4 178 -9
200 -10 22 -2 53 -4 68 -4 l29 -1 -7 -72 c-3 -40 -8 -93 -10 -118 -3 -25 -8
-76 -11 -115 -3 -38 -8 -73 -12 -76 -4 -3 -81 -30 -172 -59 -196 -64 -201 -66
-193 -100 3 -14 7 -27 9 -29 2 -2 72 14 156 37 202 54 358 93 383 97 11 1 38
7 60 13 42 12 521 119 566 127 14 3 100 20 190 39 90 19 178 37 194 39 17 3
80 14 140 26 61 11 124 23 140 26 17 2 41 7 55 10 14 3 45 8 70 11 25 3 52 7
60 9 15 4 194 32 260 41 19 2 69 9 110 14 133 17 154 19 240 25 47 3 96 8 110
11 14 3 61 40 105 83 44 42 95 89 114 105 29 24 35 34 34 67 -1 35 4 43 51 81
28 24 56 47 62 53 13 11 28 24 284 237 253 210 197 169 693 504 166 113 166
113 172 142 6 33 -21 28 -85 -16 -30 -21 -212 -145 -405 -277 -192 -131 -398
-271 -457 -312 -60 -40 -159 -108 -220 -150 -62 -42 -153 -104 -203 -138 -447
-307 -490 -329 -670 -340 -111 -7 -134 -9 -221 -19 -32 -4 -79 -9 -104 -12
-54 -6 -86 -11 -160 -24 -30 -5 -75 -12 -99 -15 -24 -3 -48 -8 -52 -11 -5 -3
-8 5 -8 18 1 13 -2 147 -6 299 l-7 276 53 -9 c103 -17 114 -19 199 -34 47 -8
137 -24 200 -34 166 -28 172 -29 210 -37 19 -3 42 -7 50 -8 8 -1 41 -5 72 -9
44 -6 61 -5 78 7 12 8 18 17 13 20 -4 3 -66 14 -138 26 -71 12 -141 23 -155
26 -24 4 -193 32 -255 42 -125 19 -321 55 -325 59 -5 6 -5 4 -15 374 -3 140
-8 310 -10 377 l-3 121 106 -44 c59 -24 116 -48 127 -53 65 -30 365 -151 387
-156 15 -4 34 -3 43 2 12 7 -70 45 -324 148 l-341 138 -1 31 c-2 136 -10 429
-13 509 -3 53 -1 97 3 97 4 0 21 -6 37 -14 71 -35 235 -106 244 -106 33 0 -7
24 -136 80 -80 35 -147 67 -149 70 -2 3 -6 121 -10 263 l-6 257 53 -21 c92
-37 161 -59 166 -54 8 8 5 9 -110 50 -91 32 -108 41 -109 59 -5 158 -9 239
-12 243 -2 2 -9 -2 -14 -9z m-839 -2133 c49 -8 90 -15 92 -15 2 0 4 -18 4 -40
0 -46 14 -44 -124 -20 -79 13 -96 13 -96 -4 0 -10 28 -19 98 -31 53 -9 102
-18 109 -20 7 -2 10 -22 7 -57 -2 -29 -6 -83 -8 -120 -5 -83 -9 -89 -44 -78
-15 5 -40 11 -57 13 -16 3 -57 10 -90 17 -57 11 -60 13 -59 38 1 15 3 51 3 79
l1 53 38 -6 c20 -3 54 -9 75 -14 20 -4 37 -4 37 0 0 6 -66 20 -115 25 -27 2
-31 17 -28 97 5 106 6 109 40 103 15 -3 68 -12 117 -20z m306 -170 c58 -8 55
-8 320 -55 123 -22 225 -40 225 -40 1 0 3 -146 5 -424 2 -198 0 -205 -44 -206
-26 0 -358 -74 -522 -116 -170 -44 -199 -50 -191 -37 3 5 7 59 8 120 1 61 4
115 8 120 3 5 15 9 25 8 11 0 21 6 24 13 2 7 -6 12 -22 12 -14 0 -26 6 -27 13
-3 35 5 295 10 318 0 3 94 -14 209 -37 338 -70 347 -71 361 -47 9 19 5 21 -62
33 -40 7 -81 14 -92 16 -11 2 -33 7 -50 10 -16 3 -49 9 -71 14 -23 5 -56 12
-75 14 -44 6 -213 39 -218 42 -6 5 0 218 8 255 0 4 29 1 64 -6 34 -8 82 -16
107 -20z m-410 -224 c34 -10 67 -16 143 -28 35 -5 37 -8 37 -42 0 -57 -7 -61
-75 -46 -33 7 -86 19 -118 25 l-57 11 2 45 c1 48 6 51 68 35z m43 -122 c50
-11 100 -21 110 -22 9 -1 17 -8 18 -17 1 -22 -7 -190 -10 -211 -1 -3 -34 -4
-73 -3 -40 2 -95 3 -122 3 l-48 1 6 123 c3 67 5 128 6 135 0 16 4 16 113 -9z
m105 -284 c9 -4 11 -35 6 -137 -4 -73 -8 -135 -10 -136 -2 -3 -133 -44 -184
-57 -8 -2 -25 -7 -38 -11 l-22 -6 6 138 c4 77 7 155 8 174 0 19 4 38 9 41 9 6
203 1 225 -6z"/>
<path d="M690 2761 c0 -4 19 -12 43 -19 23 -7 49 -16 57 -19 10 -4 12 -2 5 4
-14 14 -105 44 -105 34z"/>
<path d="M435 2090 c11 -5 29 -8 40 -8 16 0 15 2 -5 8 -34 11 -60 11 -35 0z"/>
<path d="M348 1838 c5 -5 16 -8 23 -6 8 3 3 7 -10 11 -17 4 -21 3 -13 -5z"/>
<path d="M2778 1134 c-2 -1 -39 -5 -83 -9 -96 -8 -128 -12 -220 -25 -38 -6
-90 -12 -115 -15 -25 -3 -70 -10 -100 -15 -30 -5 -71 -11 -90 -14 -19 -3 -44
-7 -55 -10 -11 -2 -42 -7 -70 -11 -98 -13 -594 -106 -860 -161 -323 -66 -303
-62 -323 -68 -9 -3 -28 -7 -42 -10 -14 -2 -56 -12 -95 -21 -452 -105 -635
-154 -642 -171 -2 -7 9 -45 25 -86 23 -55 34 -73 48 -72 33 2 111 14 281 45
91 16 198 34 238 40 41 5 84 12 97 15 13 3 39 7 58 10 19 3 42 6 50 8 13 2 52
8 135 21 11 2 47 8 80 13 33 6 79 13 103 16 24 3 82 12 130 20 48 8 110 17
137 21 28 3 82 11 120 16 39 6 84 12 100 14 17 2 46 6 65 9 19 3 60 8 90 11
30 4 62 8 70 10 13 3 87 12 170 20 71 7 169 17 200 20 19 2 89 7 155 10 66 4
120 8 121 8 1 1 35 56 77 122 42 66 90 136 107 155 56 63 71 87 54 87 -7 0
-15 -1 -16 -3z"/>
<path d="M2519 746 c-2 -2 -53 -7 -114 -11 -60 -3 -121 -8 -135 -10 -14 -2
-61 -7 -105 -10 -44 -4 -93 -8 -110 -10 -65 -6 -152 -16 -185 -20 -19 -2 -60
-7 -90 -10 -30 -4 -66 -8 -80 -10 -14 -2 -43 -6 -65 -9 -22 -3 -67 -9 -100
-12 -96 -10 -108 -12 -145 -19 -19 -3 -48 -8 -65 -10 -16 -2 -46 -6 -65 -9
-19 -3 -57 -8 -84 -12 -27 -3 -58 -8 -70 -10 -12 -2 -32 -6 -46 -8 -14 -3 -41
-7 -60 -10 -51 -7 -421 -66 -450 -71 -14 -3 -41 -8 -60 -11 -19 -2 -57 -9 -85
-15 -27 -5 -68 -12 -90 -14 -71 -9 -158 -24 -161 -28 -2 -2 10 -23 27 -46 l30
-42 127 5 c70 4 152 8 182 11 30 3 109 7 175 10 66 3 152 7 190 10 39 2 120 7
180 10 61 3 142 8 180 10 74 5 213 13 355 20 47 2 117 7 155 9 39 3 120 8 180
11 61 4 135 8 165 10 31 2 123 7 205 10 83 4 153 10 156 14 3 3 11 31 19 61 7
30 24 88 37 129 13 41 20 78 15 83 -4 4 -10 6 -13 4z"/>
<path d="M2387 434 c-1 -2 -59 -6 -127 -9 -69 -4 -150 -8 -180 -10 -30 -2
-113 -6 -185 -10 -71 -3 -159 -8 -195 -10 -36 -2 -126 -7 -200 -10 -74 -3
-173 -8 -220 -10 -47 -3 -137 -7 -200 -10 -288 -13 -360 -16 -430 -20 -41 -3
-138 -7 -215 -11 -203 -9 -217 -11 -195 -23 8 -5 58 -12 110 -16 52 -3 113 -8
135 -10 88 -8 314 -23 580 -40 208 -14 452 -20 760 -20 348 0 434 4 558 25 91
15 99 18 91 43 -6 18 -11 63 -14 134 0 9 -64 15 -73 7z"/>
</g>
</svg>
